<svg xmlns="http://www.w3.org/2000/svg" width="72" height="72" viewBox="0 0 72 72">
  <g>
    <g>
      <path d="M70.1887,37.6505h.2637l.44.727h.3168l-.4767-.7471a.4349.4349,0,0,0,.4434-.4648c0-.3449-.2088-.4888-.62-.4888h-.6462v1.7007h.2793Zm0-.7357h.3381c.168,0,.37.0248.37.2307,0,.2467-.1848.2664-.3945.2664h-.3135Z" fill="#fff"/>
      <path d="M70.4937,39.0354a1.5372,1.5372,0,1,0-1.5144-1.537A1.4908,1.4908,0,0,0,70.4937,39.0354Zm0-2.8065a1.2729,1.2729,0,1,1-1.185,1.2695A1.1923,1.1923,0,0,1,70.4937,36.2289Z" fill="#fff"/>
      <polygon points="42.729 36.039 35.979 42.782 35.979 65.258 42.729 72 65.229 72 71.979 65.258 71.979 58.515 69.729 55.817 58.479 55.817 58.479 58.515 49.479 58.515 49.479 49.524 58.479 49.524 58.479 52.221 69.729 52.221 71.979 49.524 71.979 42.782 65.229 36.039 42.729 36.039" fill="#fff"/>
    </g>
    <polygon points="72 2.248 69.75 0 60.75 0 58.5 2.248 58.5 6.743 54 11.238 49.5 6.743 49.5 2.248 47.25 0 38.25 0 36 2.248 36 2.248 36 15.733 47.25 26.971 47.25 33.714 49.5 35.961 58.5 35.961 60.75 33.714 60.75 26.971 72 15.734 72 2.248" fill="#fff"/>
    <polygon points="36 2.248 33.75 0 24.75 0 22.5 2.248 22.5 11.238 11.251 0 2.251 0 0 2.248 0 33.714 2.251 35.961 11.251 35.961 13.5 33.714 13.5 24.724 24.75 35.961 33.75 35.961 36 33.714 36 2.248" fill="#fff"/>
  </g>
</svg>
